<?xml version="1.0"?>
<svg xmlns="http://www.w3.org/2000/svg" viewBox="0 0 24 24" enable-background="new 0 0 24 24">
    <path fill="green" d="M 12 2 C 6.5 2 2 6.5 2 12 C 2 17.5 6.5 22 12 22 C 17.5 22 22 17.5 22 12 C 22 6.5 17.5 2 12 2 z M 12 4 C 16.4 4 20 7.6 20 12 C 20 16.4 16.4 20 12 20 C 7.6 20 4 16.4 4 12 C 4 7.6 7.6 4 12 4 z M 11.90625 7 C 8.60625 7 9 10 9 10 L 11 10 C 11 8.6 11.7 8.5 12 8.5 C 12.8 8.5 13 9.4125 13 9.8125 C 13 11.9125 11 11.4 11 14 L 13 14 C 13 12.3 15 12.2125 15 9.8125 C 15 8.9125 14.50625 7 11.90625 7 z M 11 15 L 11 17 L 13 17 L 13 15 L 11 15 z"/>
</svg>
